<?xml version="1.0" encoding="UTF-8" standalone="no"?>
<svg
   width="1589.52"
   height="1721.5649"
   viewBox="0 0 1589.52 1721.5649"
   version="1.1"
   id="svg486"
   xmlns="http://www.w3.org/2000/svg"
   xmlns:svg="http://www.w3.org/2000/svg">
  <defs
     id="defs490" />
  <g
     id="g484"
     transform="matrix(3.2470992,0,0,2.7697243,-358.80446,-75.98607)">
    <path
       d="m 352.36,438.85 -0.64,6.15 -3.61,-0.13 c -7.08,-0.24 -12.41,-1.56 -13.75,-3.4 -0.75,-1.02 -1.36,-3.68 -1.36,-5.91 -0.01,-4.64 -1.99,-21.85 -2.6,-22.48 -0.94,-0.97 -1.32,1.13 -2.45,13.43 -0.65,7.15 -1.47,13.29 -1.82,13.65 -0.92,0.95 -12.67,-2.89 -14.1,-4.62 -0.66,-0.8 -1.64,-6.54 -2.17,-12.75 -0.89,-10.45 -1.34,-12.13 -6.1,-22.7 -5.41,-11.99 -13.37,-25.99 -16.98,-29.82 -2.59,-2.76 -8.96,-3.07 -14.56,-0.7 -4.74,2 -23.38,6.45 -24.39,5.82 -0.81,-0.5 -17.91,-21.18 -28.62,-34.59 l -6.28,-7.88 7.53,-14.45 c 4.15,-7.95 7.54,-15.38 7.54,-16.52 0,-1.14 -2.02,-6.82 -4.5,-12.61 -2.48,-5.8 -4.5,-11.4 -4.5,-12.46 0,-1.69 1.19,-4.07 5.71,-11.42 4.28,-6.96 12.4,-20.52 14.05,-23.46 1.08,-1.93 3.71,-6.43 5.83,-10 5.05,-8.49 4.97,-10.9 -1,-29.5 -8.99,-28.01 -16.69,-53.17 -17.3,-56.54 -0.48,-2.69 3.93,-7.77 31.97,-36.77 l 11.91,-12.32 9.86,-2.93 c 9.41,-2.79 32.2,-9 60.6,-16.51 l 13.13,-3.47 3.87,3.64 c 3.63,3.41 12.35,8.8 37.38,23.12 5.77,3.3 19.72,11.3 30.99,17.79 11.27,6.48 22.98,13.13 26,14.79 3.02,1.65 6.62,3.78 8,4.72 1.38,0.94 6.66,4.05 11.75,6.91 5.09,2.86 9.25,5.56 9.25,6.01 0,0.86 -1.11,4.47 -13.92,45.44 -7.41,23.69 -7.98,26.11 -6.74,28.5 3.08,5.95 8.61,15.63 23.52,41.1 3.38,5.77 6.14,10.92 6.14,11.45 0,0.53 -2.1,6.33 -4.67,12.9 l -4.67,11.94 7.72,15.46 7.71,15.46 -2.47,3.16 c -3.28,4.18 -25.39,31.4 -28.81,35.46 -3.39,4.03 -5,4.03 -20.31,0.06 -18.55,-4.81 -18.92,-4.81 -23.3,-0.18 -4.21,4.44 -13.54,21.15 -18.04,32.31 -2.36,5.85 -3.26,10.13 -4.07,19.43 -0.66,7.53 -1.52,12.23 -2.32,12.74 -2.65,1.71 -12.14,4.9 -13.27,4.47 -0.73,-0.28 -1.58,-5.38 -2.28,-13.65 -1.04,-12.51 -1.54,-15 -2.74,-13.81 -0.28,0.29 -1.04,6.72 -1.7,14.3 -0.72,8.42 -1.68,14.27 -2.46,15.06 -1.22,1.22 -15.92,3.19 -16.85,2.26 -0.24,-0.24 -0.69,-5.81 -1,-12.37 -0.31,-6.56 -0.82,-13.95 -1.14,-16.43 -0.88,-6.9 -2.18,-2.27 -2.26,8.1 -0.04,4.74 -0.36,11.37 -0.71,14.75 z M 172.89,334.63 c -0.41,0.5 -0.66,0.84 -1,1.02 -0.69,0.37 -1.73,0.08 -5.19,-0.88 -0.22,-0.06 -0.46,-0.13 -0.7,-0.2 -14.64,-4.06 -29.32,-14.5 -34.14,-24.27 l -2.36,-4.8 V 263 c 0,-41.91 0.03,-42.56 2.21,-46.62 2.51,-4.7 7.61,-9.8 15.23,-15.25 l 5.26,-3.75 2.94,-11.44 c 10.66,-41.47 26.43,-70.02 54.84,-99.31 17.51,-18.04 31.89,-28.38 54.52,-39.18 19.07,-9.1 35.49,-14.23 58,-18.11 15.92,-2.74 51.17,-2.48 67.5,0.49 51.2,9.32 91.23,32.46 123.13,71.17 18.38,22.31 31.94,49.68 39.86,80.48 2.26,8.77 4.2,16.02 4.31,16.1 0.11,0.08 2,1.27 4.2,2.65 7.5,4.68 14.14,11.5 16.47,16.92 2.22,5.16 2.23,5.52 1.88,47.78 l -0.35,42.57 -2.74,4.67 c -1.51,2.56 -4.89,6.5 -7.5,8.75 -5.97,5.14 -20.71,12.85 -26.68,13.97 -0.52,0.09 -1.01,0.21 -1.46,0.31 -1.23,0.29 -2.22,0.52 -3.01,0.23 -3.21,-1.2 -3.19,-11.07 -3.1,-61.05 0.01,-4.55 0.02,-9.43 0.03,-14.67 0.01,-4.27 0.01,-8.29 0.02,-12.1 0.09,-50.87 0.11,-62.27 -3.17,-72.62 -1.19,-3.77 -2.82,-7.39 -5.04,-12.73 C 516.36,137.05 505.51,120.72 486,100.75 476.93,91.47 473.93,88.98 471.81,88.99 470.28,89 466.42,87.15 462.81,84.7 436.89,67.04 415.27,58.03 385.5,52.48 c -30.09,-5.61 -63.27,-2.49 -94.77,8.91 -12.64,4.58 -23.92,10.39 -38.3,19.74 -6.67,4.33 -13.05,7.87 -14.19,7.87 -5.2,0 -26.85,22.77 -38.53,40.5 -10.01,15.22 -18.94,34.41 -23.75,51.07 -1.92,6.65 -2,9.86 -1.96,79.81 0.02,53.11 -0.27,73.25 -1.11,74.25 z m 89.66,0.12 c 1.55,3.99 3.17,7.25 3.6,7.25 1.76,0 11.4,-4.3 29.06,-12.96 20.28,-9.94 20.5,-10.12 28.9,-23.24 4.38,-6.83 5.22,-9.08 7.48,-20 1.4,-6.76 2.79,-14.18 3.1,-16.48 l 0.56,-4.19 -14.88,-9.72 c -8.18,-5.35 -16.02,-10.17 -17.42,-10.71 -2.09,-0.81 -7.01,0.47 -27.82,7.28 -16.31,5.33 -25.96,8.99 -27.2,10.33 -2.22,2.38 -2.26,3.47 -0.94,26.09 0.79,13.35 1.24,16.23 2.83,18 1.82,2.02 6.83,13.16 12.73,28.35 z M 413.5,312.57 c 12.65,3.98 23.95,7.28 25.11,7.33 2.56,0.12 7.8,-3.34 16.08,-10.6 7.12,-6.25 6.8,-5.02 7.88,-30.45 0.72,-16.73 0.53,-17.21 -7.69,-20.15 -16.17,-5.79 -46.29,-14.83 -47.97,-14.39 -4.09,1.07 -31.92,20.17 -32.49,22.3 -0.74,2.76 4.15,25.67 6.66,31.2 2.4,5.29 2.5,5.34 32.42,14.76 z M 242.02,474 l -0.52,82.5 -16.61,0.58 -6.69,-6.31 C 203.75,537.16 200.06,534 198.61,534 c -0.83,0 -3.63,3.04 -6.23,6.75 -2.6,3.71 -5.78,8.19 -7.07,9.96 l -2.34,3.2 -3.24,-1.91 c -1.78,-1.06 -4.75,-3.19 -6.6,-4.74 l -3.38,-2.83 15.4,-22.59 -3.75,-3.24 -3.75,-3.24 3.18,-5.56 c 4.72,-8.26 5.46,-8.63 9.69,-4.91 1.95,1.71 3.73,3.11 3.95,3.11 0.22,0 6.1,-7.65 13.06,-17 l 12.65,-17 z m 236.74,41.25 -0.26,41.25 -8.03,0.29 -8.03,0.28 -13.24,-12.08 c -7.29,-6.64 -13.66,-11.83 -14.16,-11.51 -0.51,0.31 -3.87,5.07 -7.48,10.58 -6.21,9.48 -6.68,9.95 -8.81,8.81 -4.31,-2.29 -10.67,-7.38 -10.71,-8.55 -0.03,-0.94 7.25,-12.26 13.44,-20.9 0.71,-0.99 0.09,-2.27 -2.25,-4.69 -1.78,-1.83 -3.23,-3.71 -3.23,-4.17 0,-1.78 7.17,-11.56 8.48,-11.56 0.75,0 2.7,1.12 4.34,2.5 1.63,1.38 3.14,2.5 3.34,2.5 0.2,0 5.99,-7.64 12.85,-16.97 l 12.49,-16.98 10.76,-0.02 10.76,-0.03 z m 121,-0.03 -0.26,41.28 -8,0.27 -8,0.27 -12.73,-11.52 c -7,-6.34 -13.3,-11.52 -14,-11.51 -0.7,0 -3.01,2.71 -5.14,6.02 -2.13,3.3 -5.17,7.8 -6.76,9.99 l -2.88,3.98 -6.48,-4.25 c -3.56,-2.34 -6.48,-4.6 -6.49,-5.03 -0.01,-0.43 3.13,-5.48 6.98,-11.22 3.85,-5.74 7,-10.85 7,-11.37 0,-0.51 -1.57,-2.22 -3.48,-3.78 l -3.49,-2.85 4.01,-6.25 c 2.29,-3.57 4.72,-6.25 5.68,-6.25 0.92,0 2.98,1.24 4.58,2.75 2.86,2.71 2.93,2.72 4.29,0.75 0.76,-1.1 6.47,-8.75 12.69,-17 l 11.32,-15 10.71,-0.28 10.71,-0.29 z m -315.21,30.5 -12.05,11.23 -9.69,0.02 c -5.33,0.02 -9.95,-0.39 -10.28,-0.91 -0.32,-0.52 -0.51,-19.2 -0.44,-41.5 L 252.24,474 h 22.31 l 20.16,18.99 c 11.08,10.45 20.47,20.01 20.86,21.24 0.61,1.91 -0.71,3.54 -9.13,11.25 -5.41,4.96 -15.26,14.07 -21.89,20.24 z m 95.51,0.51 -11.56,10.73 -9.08,0.02 c -5,0.01 -9.39,-0.28 -9.75,-0.65 C 349.3,555.97 349,537.29 349,514.83 V 474 l 21.5,0.03 20.12,18.92 c 11.06,10.41 20.41,19.97 20.77,21.24 0.09,0.3 0.19,0.55 0.23,0.81 0.28,1.7 -2.01,3.82 -27.47,27.44 -1.3,1.2 -2.66,2.47 -4.09,3.79 z m -238.36,3.66 c -3.96,2.42 -10.88,6.54 -15.38,9.17 l -8.17,4.77 -4.02,-6.6 c -2.21,-3.63 -3.82,-6.92 -3.58,-7.32 0.25,-0.39 3.04,-2.18 6.2,-3.96 3.16,-1.78 10.83,-6.4 17.04,-10.27 9.55,-5.93 11.09,-7.23 9.93,-8.39 -0.75,-0.75 -8.53,-6.19 -17.29,-12.09 L 110.5,504.47 v -7.82 L 123,488.83 C 137.41,479.8 156.28,469 157.62,469 c 0.51,0 2.42,2.74 4.26,6.09 0.11,0.18 0.21,0.36 0.3,0.54 1.57,2.84 2.42,4.38 2.13,5.66 -0.37,1.6 -2.51,2.81 -7.27,5.64 -3.3,1.96 -9.71,5.77 -14.24,8.46 -7.72,4.59 -8.11,4.98 -6.27,6.29 1.08,0.77 4.9,3.56 8.47,6.19 3.57,2.63 10,7.16 14.28,10.06 8.63,5.87 11.57,9.91 9.88,13.63 -0.58,1.25 -5.37,4.9 -10.65,8.11 -5.29,3.21 -12.85,7.81 -16.81,10.22 z M 527.58,490 h -7.56 L 519.5,575.15 503,558.24 v -68.16 l -9.25,-0.29 -9.25,-0.29 -0.29,-7.75 -0.29,-7.75 h 30.04 c 16.52,0 30.04,0.22 30.04,0.49 0,2.18 -5.62,13.77 -7.05,14.54 -1,0.53 -5.22,0.97 -9.37,0.97 z M 365.75,625.13 354.5,639.99 H 349 c -0.48,0 -0.91,0.01 -1.3,0.02 -1.07,0.03 -1.88,0.04 -2.65,-0.14 -2.63,-0.64 -4.68,-3.7 -14.99,-17.37 -4.56,-6.05 -8.51,-11.55 -8.77,-12.21 -0.51,-1.31 8.1,-13.63 17.15,-24.54 5.49,-6.61 5.7,-6.75 10.39,-6.75 3.94,0 5.25,0.49 7.37,2.75 4.42,4.73 20.8,26.36 20.8,27.47 0,0.57 -5.06,7.73 -11.25,15.91 z m 92.88,0.26 L 443.26,640 H 429 v -61 h 15.77 l 14.63,14.25 c 8.05,7.84 14.62,14.99 14.62,15.89 -0.01,0.91 -6.94,8.22 -15.39,16.25 z m -119.29,-256.83 3.93,3.36 1.66,-2.21 c 0.91,-1.21 3.2,-4.8 5.08,-7.96 1.88,-3.16 3.94,-5.75 4.59,-5.75 0.64,0 3,3.07 5.23,6.83 3.17,5.33 4.63,7.87 6.31,8.03 1.5,0.14 3.18,-1.61 6.41,-4.97 l 0.33,-0.34 c 2.92,-3.04 4.61,-4.56 5.21,-6.44 0.76,-2.39 -0.27,-5.35 -2.85,-12.75 -0.3,-0.87 -0.62,-1.81 -0.97,-2.81 C 369.59,329.99 359.99,309 358.48,309 c -0.68,0 -1.81,0.69 -2.52,1.54 -0.88,1.07 -1.59,1.23 -2.32,0.5 -2.26,-2.26 -4.62,-1 -7,3.71 -4.21,8.32 -10.53,23.82 -13.63,33.38 l -3,9.27 2.69,3.9 c 1.49,2.14 4.47,5.4 6.64,7.26 z m 81.41,276.74 c -1.79,1.32 -3.78,2.7 -4.42,3.06 -1.5,0.84 -3.84,-2.18 -12.51,-16.14 -8.85,-14.28 -10.11,-14.48 -10.82,-1.71 l -0.5,8.99 -5.75,0.3 -5.75,0.3 V 579 h 5.96 c 5.48,0 6.48,0.37 12.25,4.51 3.46,2.48 10.02,7.07 14.59,10.18 6.34,4.34 8.22,6.15 8,7.69 -0.18,1.18 -3.12,3.95 -7.1,6.7 -3.75,2.58 -7.05,4.93 -7.34,5.22 -0.29,0.3 3.33,6.59 8.06,13.98 4.72,7.4 8.58,13.94 8.58,14.53 0,0.6 -1.46,2.17 -3.25,3.49 z m -187.9,0.69 c -2.28,1.66 -4.51,3.01 -4.95,3.01 -0.81,0 -5.66,-7.23 -13.95,-20.77 -3.4,-5.55 -4.92,-7.21 -6.45,-7 -1.81,0.24 -2.03,1.14 -2.29,9.52 L 204.92,640 H 194 v -61 h 5.66 c 5.31,0 6.17,0.37 13.75,5.82 4.45,3.2 10.87,7.74 14.27,10.09 3.4,2.36 6.42,4.91 6.72,5.68 0.65,1.7 -2.21,4.51 -9.15,9 -2.89,1.86 -5.25,3.83 -5.25,4.38 0,0.55 3.82,6.81 8.5,13.92 4.68,7.1 8.5,13.4 8.5,14 0,0.6 -1.87,2.45 -4.15,4.1 z m 45.64,-9.74 0.6,3.75 h -16.78 l -20.81,-12.5 -0.89,-11.67 c -0.52,-6.82 -0.52,-16.79 0,-24 l 0.89,-12.33 18.25,-0.27 c 10.04,-0.15 18.25,0.1 18.25,0.57 0,0.46 -0.69,3.17 -1.54,6.02 L 274.92,591 H 252.9 l 0.6,10.5 9.74,0.29 c 9.44,0.27 9.72,0.35 9.32,2.5 -0.23,1.21 -0.44,3.67 -0.49,5.46 L 272,613 h -19.12 l 0.31,3.73 c 0.29,3.43 0.83,4.03 6.81,7.5 5.26,3.05 7.49,3.77 11.73,3.77 0.27,0 0.53,0 0.77,0 1.99,-0.01 3.13,-0.01 3.87,0.53 1.1,0.8 1.32,2.79 2.12,7.72 z m 230.17,-7.94 c -5.04,2.97 -12.87,7.69 -17.4,10.49 l -8.24,5.1 -3.01,-4.38 c -1.65,-2.41 -3.01,-4.75 -3.01,-5.2 0,-0.45 5.63,-4.14 12.5,-8.21 6.88,-4.06 12.49,-7.66 12.47,-8 -0.02,-0.33 -3.28,-2.7 -7.25,-5.26 -21.79,-14.02 -22.06,-14.8 -7.97,-23.47 14.36,-8.84 23.79,-14.38 24.47,-14.38 0.57,0 5.78,8.39 5.78,9.31 0,0.24 -4.94,3.31 -10.98,6.82 -6.04,3.5 -10.99,6.62 -11,6.92 -0.01,0.31 3.47,2.91 7.73,5.78 14.53,9.79 15.73,10.76 16.66,13.4 1.26,3.57 0.26,4.59 -10.75,11.08 z m -189.06,9.26 c -1.57,2.99 -3.13,5.4 -3.47,5.36 -0.65,-0.07 -21.34,-18.15 -31.38,-27.42 -3.32,-3.07 -5.75,-6.16 -5.75,-7.32 0,-2.44 28.18,-29.52 31.24,-30.03 2.29,-0.38 10.76,1.76 10.76,2.71 0,0.33 -6.1,6.72 -13.56,14.19 l -13.56,13.59 11.31,9.43 c 6.22,5.18 12.65,10.46 14.28,11.74 l 2.97,2.32 z M 269.64,535.31 c 0.74,0.73 3.02,-1.12 15.48,-12.53 l 9.04,-8.28 -11.33,-10.74 c -6.23,-5.91 -11.89,-10.75 -12.58,-10.75 -0.96,-0.01 -1.25,4.82 -1.25,20.82 0,11.46 0.29,21.12 0.64,21.48 z M 366,514.5 c 0,11.83 0.24,21.5 0.54,21.5 0.3,0 3.56,-2.81 7.25,-6.25 3.69,-3.44 8.95,-8.2 11.69,-10.57 l 4.97,-4.33 -11.47,-10.88 c -6.32,-5.98 -11.82,-10.9 -12.23,-10.92 -0.41,-0.03 -0.75,9.62 -0.75,21.45 z m -19.23,110.75 c 0.85,0.96 1.81,1.75 2.14,1.75 0.68,0 14.09,-16.6 14.09,-17.44 0,-0.52 -6.46,-9.09 -11.28,-14.97 -1.4,-1.7 -2.87,-2.61 -3.55,-2.19 -1.26,0.77 -13.17,16.15 -13.17,16.99 0,0.54 9.22,12.96 11.77,15.86 z M 436.4,356.6 c 7.72,7.72 18.84,1.13 17.14,-10.16 -0.82,-5.49 -9.16,-22.73 -10.74,-22.21 -0.65,0.22 -3.11,4.87 -5.47,10.33 -5.54,12.82 -5.73,17.24 -0.93,22.04 z M 215.16,525.97 c 4.04,3.82 7.9,6.96 8.59,6.99 0.96,0.03 1.25,-4.2 1.25,-17.96 0,-9.9 -0.37,-18 -0.83,-18 -0.73,0 -15.14,19.09 -16.01,21.2 -0.18,0.45 2.97,3.94 7,7.77 z m 237.96,0.44 c 3.92,3.62 7.52,6.59 8,6.59 0.48,0 0.88,-7.88 0.88,-17.5 0,-9.75 -0.4,-17.5 -0.9,-17.5 -1.2,0 -15.1,18.93 -15.1,20.55 0,0.7 3.2,4.23 7.12,7.86 z m 121.13,0 c 3.99,3.61 7.59,6.57 8,6.58 0.41,0 0.75,-7.87 0.75,-17.49 0,-10.01 -0.39,-17.5 -0.92,-17.5 -1.23,0 -15.08,18.84 -15.08,20.52 0,0.72 3.26,4.27 7.25,7.89 z M 441,609 c 0,8.8 0.34,15.98 0.75,15.96 0.41,-0.01 4.58,-3.62 9.25,-8.01 l 8.5,-7.97 -8.5,-7.97 c -4.67,-4.38 -8.84,-7.97 -9.25,-7.99 C 441.34,593.01 441,600.2 441,609 Z m 6,-256 c -4.31,4.31 -9.72,0.8 -8.67,-5.62 0.67,-4.16 3.85,-12.37 4.79,-12.38 0.93,0 5.88,11.84 5.88,14.07 0,1.06 -0.9,2.83 -2,3.93 z m -54,247.46 c 0,4.15 0.36,7.54 0.8,7.54 1.29,0 10.2,-5.88 10.2,-6.73 0,-0.91 -5.54,-5.43 -8.75,-7.14 -2.24,-1.2 -2.25,-1.17 -2.25,6.33 z m -187.37,6.84 c 1.06,1.05 10.37,-4.59 10.37,-6.28 0,-1.17 -8.09,-7.02 -9.7,-7.02 -0.93,0 -1.3,1.8 -1.3,6.33 0,3.49 0.28,6.62 0.63,6.97 z"
       fill="#040303"
       id="path478"
       style="display:inline" />
    <path
       d="m 489.27,279.82 c 0.46,-1.34 0.73,-2.2 0.73,-2.39 0,-0.53 -2.76,-5.68 -6.14,-11.45 -14.91,-25.47 -20.44,-35.15 -23.52,-41.1 -1.24,-2.39 -0.67,-4.81 6.74,-28.5 12.81,-40.97 13.92,-44.58 13.92,-45.44 0,-0.45 -4.16,-3.15 -9.25,-6.01 -5.09,-2.86 -10.37,-5.97 -11.75,-6.91 -1.38,-0.94 -4.98,-3.07 -8,-4.72 -3.02,-1.66 -14.73,-8.31 -26,-14.79 -11.27,-6.49 -25.22,-14.49 -30.99,-17.79 C 369.98,86.4 361.26,81.01 357.63,77.6 l -3.87,-3.64 -13.13,3.47 c -3.67,0.97 -7.24,1.92 -10.7,2.84 7.8,-2.15 13.56,-3.85 14.19,-4.21 0.89,-0.5 3.45,-1.41 5.69,-2.01 4.23,-1.14 8.75,-0.05 75.62,18.19 l 11.93,3.26 14.62,15 c 21.64,22.19 30.55,31.75 31.81,34.11 1.35,2.52 8,26.36 12.78,45.84 2.73,11.1 3.43,15.95 3.43,23.81 0,13.75 -5.76,53.19 -8.89,60.85 -0.25,0.6 -0.93,2.34 -1.84,4.71 z m -287.35,55.77 c -1.4,1.69 -18.38,1.95 -21.17,0.33 -1.64,-0.96 -1.75,-5.41 -1.75,-71.04 0,-46.35 0.35,-70.67 1.04,-71.95 0.91,-1.7 2.16,-1.93 10.37,-1.93 7.47,0 9.62,0.33 10.72,1.65 1.87,2.25 2.64,140.72 0.79,142.94 z m 325.5,0.8 c -2.95,1.13 -18.97,0.66 -20.22,-0.59 -0.91,-0.91 -1.2,-18.14 -1.2,-71.43 0,-62.51 0.17,-70.4 1.57,-71.8 1.97,-1.97 18.33,-2.27 20.23,-0.37 0.91,0.91 1.2,18.35 1.2,72.39 0,64 -0.16,71.26 -1.58,71.8 z M 234.39,134.28 c -6.97,7.67 -8.38,10.09 -8.1,11.68 0.61,3.37 8.31,28.53 17.3,56.54 5.97,18.6 6.05,21.01 1,29.5 -2.12,3.57 -4.75,8.07 -5.83,10 -1.65,2.94 -9.77,16.5 -14.05,23.46 -4.52,7.35 -5.71,9.73 -5.71,11.42 0,1.06 2.02,6.66 4.5,12.46 1.7,3.98 3.19,7.9 3.95,10.34 -1.5,-4.74 -5.86,-15.16 -9.84,-23.32 -2.59,-5.3 -4.44,-16.39 -8.16,-48.73 -1.41,-12.26 -1.5,-16.11 -0.53,-22 1.88,-11.49 7.58,-34.32 13.23,-52.97 1.69,-5.59 2.56,-7.84 12.24,-18.38 z m 28.16,200.47 c -5.9,-15.19 -10.91,-26.33 -12.73,-28.35 -1.05,-1.17 -1.61,-2.82 -2.09,-7.66 0.78,4.96 2.14,6.3 5.25,9.26 2.61,2.48 6.66,5.96 8.99,7.75 5.68,4.34 8.29,4.22 26.51,-1.29 36,-10.9 35.77,-10.81 38.62,-15.07 1.23,-1.85 2.84,-6.79 4.31,-12.74 -2.13,10.2 -3.03,12.5 -7.3,19.15 -8.4,13.12 -8.62,13.3 -28.9,23.24 -17.66,8.66 -27.3,12.96 -29.06,12.96 -0.43,0 -2.05,-3.26 -3.6,-7.25 z m -1.36,38.09 c 4.57,-1.15 9.03,-2.43 11.03,-3.27 5.6,-2.37 11.97,-2.06 14.56,0.7 3.61,3.83 11.57,17.83 16.98,29.82 4.76,10.57 5.21,12.25 6.1,22.7 0.53,6.19 1.5,11.91 2.17,12.74 -0.67,-0.83 -1.64,-6.53 -2.18,-12.71 -1.59,-18.6 -4.59,-17.08 -4.78,2.43 -0.04,4.36 -0.5,7.75 -1.05,7.75 -0.54,0 -4.39,-1.68 -8.54,-3.74 -5.05,-2.5 -7.69,-4.41 -7.95,-5.75 -1.16,-5.93 -7.53,-49.35 -7.53,-51.29 0,-1.26 -0.61,-2.52 -1.36,-2.8 -0.74,-0.29 -7.8,1.05 -15.67,2.98 -0.6,0.15 -1.2,0.29 -1.78,0.44 z m 136.03,62.62 c 0.67,-1.65 1.33,-5.9 1.87,-12.03 0.81,-9.3 1.71,-13.58 4.07,-19.43 4.5,-11.16 13.83,-27.87 18.04,-32.31 4.38,-4.63 4.75,-4.63 23.3,0.18 15.31,3.97 16.92,3.97 20.31,-0.06 -3.37,4.01 -4.91,4.02 -20.31,0.19 -6.6,-1.64 -12.7,-2.99 -13.56,-2.99 -1.29,-0.01 -2.25,4.64 -5.35,25.74 -2.07,14.16 -4.08,26.87 -4.46,28.25 -0.51,1.86 -2.67,3.48 -8.47,6.35 -4.29,2.12 -7.97,3.67 -8.2,3.45 -0.22,-0.22 -0.71,-5.46 -1.08,-11.64 -0.8,-13.08 -2.47,-14.49 -3.65,-3.08 -1.19,11.52 -1.42,15.54 -2.51,17.38 z M 129.88,223.88 c -0.37,5.53 -0.38,16.1 -0.38,39.12 v 38.27 c -0.54,-2.01 -1.46,-4.67 -2.5,-7.12 -8.44,-19.81 -8.75,-39.03 -0.95,-58.51 1.84,-4.58 3.39,-9.4 3.83,-11.76 z m 449.65,79.68 0.32,-38.63 c 0.25,-29.13 0.31,-38.35 -0.39,-42.96 0.25,1.06 0.46,2.09 0.59,3.01 0.43,3.03 2.22,9.34 3.97,14.02 5.77,15.33 5.15,38.52 -1.43,53.38 -1.27,2.88 -2.63,7.75 -3.01,10.83 -0.02,0.12 -0.03,0.24 -0.05,0.35 z m -196.23,136.89 -0.8,0.05 -0.67,-7.41 c 0.48,4.05 0.99,6.64 1.47,7.36 z M 577.93,217.07 c -1.27,-2.92 -3.78,-6.23 -6.99,-9.4 2.83,2.73 5.12,5.49 6.24,7.68 0.25,0.49 0.5,1.07 0.75,1.72 z M 544.81,334.3 c 5.68,-1.8 15.13,-6.69 21.21,-10.91 -6.05,4.3 -15.39,9.09 -21.21,10.91 z M 388.23,439.64 c -2.3,0.72 -4.25,1.18 -4.73,1 -0.06,-0.03 -0.13,-0.09 -0.2,-0.19 l 1.83,-0.12 c 0.68,-0.05 1.81,-0.3 3.1,-0.69 z m -6.94,-12.52 0.54,5.97 c -0.21,-1.77 -0.42,-3.81 -0.61,-6.1 -0.28,-3.44 -0.53,-6.11 -0.76,-8.17 -0.61,-5.2 -1.08,-6.37 -1.85,-5.75 0.79,-0.64 1.27,0.59 1.85,5.75 0.24,2.08 0.51,4.8 0.83,8.3 z M 246.45,278.76 c -0.37,-7.05 -0.46,-10.69 -0.18,-12.84 -0.24,2.13 -0.12,5.75 0.18,12.84 z m -115.6,29.49 1.01,2.05 c 0.67,1.36 1.53,2.73 2.56,4.1 -1.6,-2.08 -2.82,-4.15 -3.57,-6.15 z m 440.33,10.86 c 1.22,-1.24 2.47,-2.67 3.54,-4.02 -1.03,1.38 -2.21,2.72 -3.54,4.02 z M 394.96,437.12 c -1.08,0.5 -2.42,1.03 -3.79,1.52 0.57,-0.21 1.12,-0.43 1.65,-0.66 0.85,-0.36 1.55,-0.62 2.14,-0.86 z m -60.22,-168.19 0.46,-3.83 0.05,0.03 z m 62.48,166.53 c -0.15,0.38 -0.3,0.62 -0.45,0.71 -0.15,0.1 -0.33,0.2 -0.52,0.31 0.39,-0.26 0.71,-0.58 0.97,-1.02 z M 538.1,335.43 c -1.53,-0.57 -2.32,-3.1 -2.72,-11.03 0.4,7.91 1.2,10.45 2.73,11.03 0.3,0.11 0.64,0.14 1,0.13 -0.37,0.02 -0.71,-0.02 -1.01,-0.13 z M 391.17,438.64 c -0.99,0.38 -2.01,0.73 -2.94,1 0.95,-0.29 1.96,-0.64 2.94,-1 z m 5.08,-2.16 c -0.36,0.24 -0.78,0.43 -1.29,0.64 0.49,-0.22 0.92,-0.44 1.29,-0.64 z m -160.6,-75.45 c -5.34,-6.48 -11.5,-14.05 -16.44,-20.23 4.87,6.1 11.06,13.7 16.44,20.23 z M 130.18,220.9 c -0.06,0.36 -0.11,0.76 -0.15,1.2 0.02,-0.4 0.07,-0.8 0.15,-1.2 z m 141.5,-124.48 -1.51,0.45 0.01,-0.01 z M 247.84,375.4 c 0.06,0.03 0.15,0.04 0.28,0.05 -0.13,0 -0.22,-0.01 -0.26,-0.04 0,0 -0.01,0 -0.02,-0.01 z"
       fill="#943e3a"
       id="path480"
       style="display:inline" />
  </g>
</svg>
